<svg id="fill-play-cyan" viewBox="0 0 24 24" fill="none" xmlns="http://www.w3.org/2000/svg">
	<path d="M12.0025 4.03962C10.4502 3.1223 9.23965 2.407 8.25506 1.94081C7.26713 1.47303 6.39423 1.19864 5.53693 1.28261C4.19049 1.4145 2.96418 2.11428 2.16565 3.20637C1.65722 3.90172 1.44939 4.79281 1.34952 5.88132C1.24999 6.96615 1.24999 8.37221 1.25 10.1754V13.825C1.24999 15.6282 1.24999 17.0342 1.34952 18.1191C1.44939 19.2076 1.65722 20.0987 2.16565 20.794C2.96418 21.8861 4.19049 22.5859 5.53693 22.7178C6.39423 22.8018 7.26713 22.5274 8.25507 22.0596C9.23966 21.5934 10.4502 20.8781 12.0025 19.9608L15.0917 18.1353C16.5971 17.2458 17.7722 16.5514 18.6323 15.9307C19.4966 15.3069 20.1432 14.6894 20.4844 13.9146C21.0216 12.6949 21.0216 11.3055 20.4844 10.0858C20.1432 9.31096 19.4966 8.69349 18.6323 8.0697C17.7722 7.44897 16.5971 6.75458 15.0917 5.86504L12.0025 4.03962Z" fill="#00BBDD"/>
</svg>
