<svg id="fill-pause-cyan" viewBox="0 0 24 24" fill="none" xmlns="http://www.w3.org/2000/svg">
	<path d="M6.16957 2.25H6.83044C7.36458 2.24999 7.81044 2.24998 8.17467 2.27974C8.55456 2.31078 8.91121 2.37789 9.24848 2.54973C9.76592 2.81339 10.1866 3.23408 10.4503 3.75153C10.6221 4.08879 10.6892 4.44545 10.7203 4.82533C10.75 5.18957 10.75 5.63542 10.75 6.16957V17.8304C10.75 18.3646 10.75 18.8104 10.7203 19.1747C10.6892 19.5546 10.6221 19.9112 10.4503 20.2485C10.1866 20.7659 9.76592 21.1866 9.24848 21.4503C8.91121 21.6221 8.55456 21.6892 8.17467 21.7203C7.81044 21.75 7.3646 21.75 6.83045 21.75H6.16955C5.6354 21.75 5.18956 21.75 4.82533 21.7203C4.44545 21.6892 4.08879 21.6221 3.75153 21.4503C3.23408 21.1866 2.81339 20.7659 2.54973 20.2485C2.37789 19.9112 2.31078 19.5546 2.27974 19.1747C2.24998 18.8104 2.24999 18.3646 2.25 17.8305V6.16957C2.24999 5.63543 2.24998 5.18956 2.27974 4.82533C2.31078 4.44545 2.37789 4.08879 2.54973 3.75153C2.81339 3.23408 3.23408 2.81339 3.75153 2.54973C4.08879 2.37789 4.44545 2.31078 4.82533 2.27974C5.18956 2.24998 5.63543 2.24999 6.16957 2.25Z" fill="#00BBDD"/>
	<path d="M17.1696 2.25C16.6354 2.24999 16.1896 2.24998 15.8253 2.27974C15.4454 2.31078 15.0888 2.37789 14.7515 2.54973C14.2341 2.81339 13.8134 3.23408 13.5497 3.75153C13.3779 4.08879 13.3108 4.44545 13.2797 4.82533C13.25 5.18956 13.25 5.63541 13.25 6.16957V17.8304C13.25 18.3646 13.25 18.8104 13.2797 19.1747C13.3108 19.5546 13.3779 19.9112 13.5497 20.2485C13.8134 20.7659 14.2341 21.1866 14.7515 21.4503C15.0888 21.6221 15.4454 21.6892 15.8253 21.7203C16.1896 21.75 16.6354 21.75 17.1695 21.75H17.8305C18.3646 21.75 18.8104 21.75 19.1747 21.7203C19.5546 21.6892 19.9112 21.6221 20.2485 21.4503C20.7659 21.1866 21.1866 20.7659 21.4503 20.2485C21.6221 19.9112 21.6892 19.5546 21.7203 19.1747C21.75 18.8104 21.75 18.3646 21.75 17.8304V6.16957C21.75 5.63542 21.75 5.18957 21.7203 4.82533C21.6892 4.44545 21.6221 4.08879 21.4503 3.75153C21.1866 3.23408 20.7659 2.81339 20.2485 2.54973C19.9112 2.37789 19.5546 2.31078 19.1747 2.27974C18.8104 2.24998 18.3646 2.24999 17.8305 2.25H17.1696Z" fill="#00BBDD"/>
</svg>
