<svg id="form-user-name" viewBox="0 0 24 24" fill="none" xmlns="http://www.w3.org/2000/svg">
	<path fill-rule="evenodd" clip-rule="evenodd" d="M11.99 2C6.47 2 2 6.47 2 12s4.47 10 9.99 10C17.51 22 22 17.53 22 12S17.52 2 11.99 2zM8.88 9.94l.53.53c.29.29.77.29 1.06 0 .29-.29.29-.77 0-1.06l-.88-.88a.996.996 0 00-1.41 0l-.89.88c-.29.29-.29.77 0 1.06.29.29.77.29 1.06 0l.53-.53zM12 17.5c2.03 0 3.8-1.11 4.75-2.75a.503.503 0 00-.44-.75H7.69c-.38 0-.63.42-.44.75A5.489 5.489 0 0012 17.5zm2.59-7.03c-.29.29-.77.29-1.06 0a.746.746 0 01.01-1.06l.88-.88a.996.996 0 011.41 0l.88.88c.29.29.29.77 0 1.06-.29.29-.77.29-1.06 0l-.53-.53-.53.53zM4 12c0 4.42 3.58 8 8 8s8-3.58 8-8-3.58-8-8-8-8 3.58-8 8z" fill="#F07600"/>
</svg>