<svg id="form-user-phone" viewBox="0 0 24 24" fill="none" xmlns="http://www.w3.org/2000/svg">
	<path fill-rule="evenodd" clip-rule="evenodd" d="M16.682 14.978l2.54.29c1.01.12 1.77.97 1.76 1.98v1.73c0 1.13-.94 2.07-2.07 2-8.53-.53-15.36-7.35-15.89-15.89-.07-1.13.87-2.07 2-2.07h1.73c1.02 0 1.87.76 1.99 1.77l.29 2.52c.07.61-.14 1.21-.57 1.64l-1.85 1.85c1.44 2.84 3.76 5.15 6.59 6.59l1.84-1.84a1.99 1.99 0 011.64-.57zm-3.81-9.92c3.18.4 5.67 2.89 6.07 6.07.06.51.49.88.99.88.04 0 .08 0 .12-.01.55-.07.94-.57.87-1.12a8.981 8.981 0 00-7.81-7.81c-.55-.06-1.05.33-1.11.88-.07.55.32 1.05.87 1.11zm.38 2.11a1 1 0 00-1.22.72c-.14.54.18 1.08.72 1.22a3 3 0 012.15 2.15 1.003 1.003 0 001.22.72c.53-.14.85-.69.72-1.22a5.018 5.018 0 00-3.59-3.59z" fill="#F07600"/>
</svg>