<svg id="fill-clock" viewBox="0 0 24 24" xmlns="http://www.w3.org/2000/svg">
	<path d="M4.53033 0.46967C4.82322 0.762563 4.82322 1.23744 4.53033 1.53033L1.53033 4.53033C1.23744 4.82322 0.762563 4.82322 0.46967 4.53033C0.176777 4.23744 0.176777 3.76256 0.46967 3.46967L3.46967 0.46967C3.76256 0.176777 4.23744 0.176777 4.53033 0.46967Z"/>
	<path fill-rule="evenodd" clip-rule="evenodd" d="M12 1.25C6.06294 1.25 1.25 6.06294 1.25 12C1.25 17.9371 6.06294 22.75 12 22.75C17.9371 22.75 22.75 17.9371 22.75 12C22.75 6.06294 17.9371 1.25 12 1.25ZM12 7.25C12.4142 7.25 12.75 7.58579 12.75 8V11.5986L15.416 13.376C15.7607 13.6057 15.8538 14.0714 15.624 14.416C15.3943 14.7607 14.9286 14.8538 14.584 14.624L11.584 12.624C11.3753 12.4849 11.25 12.2508 11.25 12V8C11.25 7.58579 11.5858 7.25 12 7.25Z"/>
	<path d="M19.4697 1.53033C19.1768 1.23744 19.1768 0.762563 19.4697 0.46967C19.7626 0.176777 20.2374 0.176777 20.5303 0.46967L23.5303 3.46967C23.8232 3.76256 23.8232 4.23744 23.5303 4.53033C23.2374 4.82322 22.7626 4.82322 22.4697 4.53033L19.4697 1.53033Z"/>
</svg>
