<svg id="fill-checkbox-rec-1" viewBox="0 0 24 24" xmlns="http://www.w3.org/2000/svg">
	<path fill-rule="evenodd" clip-rule="evenodd" d="M11.9718 2.25C10.5978 2.25 9.52832 2.25 8.66601 2.30883C7.79109 2.36853 7.07482 2.49129 6.41689 2.76381C4.76295 3.4489 3.4489 4.76295 2.76381 6.41689C2.49129 7.07482 2.36853 7.79109 2.30883 8.66601C2.25 9.52832 2.25 10.5978 2.25 11.9718L2.25 12.0282C2.25 13.4022 2.25 14.4717 2.30883 15.334C2.36853 16.2089 2.49129 16.9252 2.76381 17.5831C3.4489 19.2371 4.76295 20.5511 6.41689 21.2362C7.07482 21.5087 7.79109 21.6315 8.66601 21.6912C9.52829 21.75 10.5978 21.75 11.9717 21.75H12.0282C13.4021 21.75 14.4717 21.75 15.334 21.6912C16.2089 21.6315 16.9252 21.5087 17.5831 21.2362C19.2371 20.5511 20.5511 19.2371 21.2362 17.5831C21.5087 16.9252 21.6315 16.2089 21.6912 15.334C21.75 14.4717 21.75 13.4022 21.75 12.0283V11.9718C21.75 10.5979 21.75 9.52829 21.6912 8.66601C21.6315 7.79109 21.5087 7.07482 21.2362 6.41689C20.5511 4.76295 19.2371 3.4489 17.5831 2.76381C16.9252 2.49129 16.2089 2.36853 15.334 2.30883C14.4717 2.25 13.4022 2.25 12.0282 2.25L11.9718 2.25ZM23.5303 2.46967C23.8232 2.76256 23.8232 3.23744 23.5303 3.53033L12.5303 14.5303C12.2374 14.8232 11.7626 14.8232 11.4697 14.5303L8.46967 11.5303C8.17678 11.2374 8.17678 10.7626 8.46967 10.4697C8.76256 10.1768 9.23744 10.1768 9.53033 10.4697L12 12.9393L22.4697 2.46967C22.7626 2.17678 23.2374 2.17678 23.5303 2.46967Z"/>
</svg>
