<svg id="fill-cake" viewBox="0 0 24 24" xmlns="http://www.w3.org/2000/svg">
	<path d="M20.8904 13V14H20.0204C19.2804 14 18.6804 14.6 18.6804 15.35V15.65C18.6804 16.4 18.0804 17 17.3304 17C16.5904 17 15.9904 16.4 15.9904 15.65V15.35C15.9904 14.6 15.3804 14 14.6404 14C13.9004 14 13.3004 14.6 13.3004 15.35V15.65C13.3004 16.4 12.6904 17 11.9504 17C11.2104 17 10.6004 16.4 10.6004 15.65V15.35C10.6004 14.6 10.0004 14 9.26035 14C8.52035 14 7.91035 14.6 7.91035 15.35V15.65C7.91035 16.4 7.31035 17 6.57035 17C5.82035 17 5.22035 16.4 5.22035 15.65V15.33C5.22035 14.59 4.63035 13.99 3.90035 13.98H3.11035V13C3.11035 11.62 4.15035 10.45 5.56035 10.11C5.84035 10.04 6.13035 10 6.44035 10H17.5604C17.8704 10 18.1604 10.04 18.4404 10.11C19.8504 10.45 20.8904 11.62 20.8904 13Z"/>
	<path d="M8.75035 3.55V5.01H7.98035C7.72035 5.01 7.48035 5.04 7.25035 5.1V3.55C7.25035 3.2 7.59035 2.9 8.00035 2.9C8.41035 2.9 8.75035 3.2 8.75035 3.55Z"/>
	<path d="M16.7504 3.33V5.1C16.5204 5.03 16.2804 5 16.0204 5H15.2504V3.33C15.2504 2.92 15.5904 2.58 16.0004 2.58C16.4104 2.58 16.7504 2.92 16.7504 3.33Z"/>
	<path d="M12.7504 2.82V5H11.2504V2.82C11.2504 2.37 11.5904 2 12.0004 2C12.4104 2 12.7504 2.37 12.7504 2.82Z"/>
	<g opacity="0.4">
		<path d="M18.44 7.17V10.11C18.16 10.04 17.87 10 17.56 10H6.44C6.13 10 5.84 10.04 5.56 10.11V7.17C5.56 5.97 6.64 5 7.98 5H16.02C17.36 5 18.44 5.97 18.44 7.17Z"/>
		<path d="M21.25 20.5H20.89V14H20.02C19.28 14 18.68 14.6 18.68 15.35V15.65C18.68 16.4 18.08 17 17.33 17C16.59 17 15.99 16.4 15.99 15.65V15.35C15.99 14.6 15.38 14 14.64 14C13.9 14 13.3 14.6 13.3 15.35V15.65C13.3 16.4 12.69 17 11.95 17C11.21 17 10.6 16.4 10.6 15.65V15.35C10.6 14.6 10 14 9.26 14C8.52 14 7.91 14.6 7.91 15.35V15.65C7.91 16.4 7.31 17 6.57 17C5.82 17 5.22 16.4 5.22 15.65V15.33C5.22 14.59 4.63 13.99 3.9 13.98H3.11V20.5H2.75C2.34 20.5 2 20.84 2 21.25C2 21.66 2.34 22 2.75 22H21.25C21.66 22 22 21.66 22 21.25C22 20.84 21.66 20.5 21.25 20.5Z"/>
	</g>
</svg>
