<svg id="fill-soc-wa" viewBox="0 0 60 60" xmlns="http://www.w3.org/2000/svg">
	<path fill-rule="evenodd" clip-rule="evenodd" d="M0 30C0 46.5685 13.4315 60 30 60C46.5685 60 60 46.5685 60 30C60 13.4315 46.5685 0 30 0C13.4315 0 0 13.4315 0 30ZM48.8277 28.8519C48.8237 38.6853 40.8244 46.6866 30.9888 46.6906H30.9815C27.9959 46.6896 25.0623 45.9405 22.4567 44.5193L13 47L15.5308 37.7561C13.9697 35.0507 13.1482 31.9819 13.1496 28.8378C13.1535 19.0021 21.156 11 30.9887 11C35.7608 11.0021 40.2398 12.8598 43.6078 16.2318C46.9757 19.6035 48.8296 24.0854 48.8277 28.8519Z"/>
	<path fill-rule="evenodd" clip-rule="evenodd" d="M17.2831 42.7619L22.8948 41.2899L23.4363 41.6112C25.7127 42.9621 28.3222 43.6769 30.9828 43.6779H30.9888C39.1611 43.6779 45.8124 37.0264 45.8157 28.8508C45.8172 24.889 44.2764 21.1639 41.4771 18.3612C38.6777 15.5586 34.955 14.0144 30.9947 14.013C22.8162 14.013 16.1647 20.6639 16.1615 28.8388C16.1603 31.6405 16.9442 34.3689 18.4284 36.7295L18.781 37.2905L17.2831 42.7619ZM39.3655 32.6926C39.6764 32.8428 39.8863 32.9443 39.976 33.0939C40.0874 33.2798 40.0874 34.1722 39.7161 35.2136C39.3445 36.2547 37.5638 37.205 36.7074 37.3329C35.9395 37.4477 34.9677 37.4956 33.8999 37.1563C33.2525 36.9509 32.4223 36.6766 31.3589 36.2174C27.1802 34.413 24.3563 30.363 23.8226 29.5975C23.7852 29.5439 23.759 29.5064 23.7444 29.4869L23.7408 29.4821C23.505 29.1674 21.9244 27.0585 21.9244 24.876C21.9244 22.8228 22.9329 21.7466 23.3972 21.2513C23.429 21.2173 23.4582 21.1861 23.4844 21.1575C23.893 20.7113 24.3759 20.5997 24.6731 20.5997C24.9702 20.5997 25.2676 20.6024 25.5273 20.6155C25.5594 20.6171 25.5927 20.6169 25.6272 20.6167C25.8869 20.6152 26.2108 20.6133 26.5302 21.3806C26.6531 21.6759 26.8329 22.1137 27.0226 22.5754C27.4061 23.5092 27.8299 24.541 27.9045 24.6903C28.016 24.9134 28.0902 25.1736 27.9417 25.4712C27.9194 25.5158 27.8987 25.5579 27.879 25.5982C27.7674 25.826 27.6853 25.9936 27.4959 26.2147C27.4215 26.3017 27.3445 26.3954 27.2675 26.4892C27.1142 26.6759 26.9608 26.8626 26.8273 26.9957C26.6042 27.2179 26.3719 27.4591 26.6319 27.9053C26.8919 28.3516 27.7865 29.8111 29.1116 30.9931C30.536 32.2636 31.774 32.8006 32.4015 33.0728C32.524 33.126 32.6233 33.169 32.6961 33.2055C33.1417 33.4286 33.4017 33.3913 33.6617 33.0939C33.9217 32.7964 34.776 31.7923 35.0731 31.3462C35.3702 30.9001 35.6674 30.9744 36.0759 31.1231C36.4846 31.272 38.676 32.3502 39.1217 32.5732C39.2088 32.6168 39.2901 32.6561 39.3655 32.6926Z"/>
</svg>
