<svg id="fill-soc-in" viewBox="0 0 60 60" xmlns="http://www.w3.org/2000/svg">
	<path d="M30 36.7164C33.7094 36.7164 36.7164 33.7094 36.7164 30C36.7164 26.2906 33.7094 23.2836 30 23.2836C26.2906 23.2836 23.2836 26.2906 23.2836 30C23.2836 33.7094 26.2906 36.7164 30 36.7164Z"/>
	<path d="M40.4975 21.4428C40.4975 22.5144 39.6288 23.3831 38.5572 23.3831C37.4856 23.3831 36.6169 22.5144 36.6169 21.4428C36.6169 20.3712 37.4856 19.5025 38.5572 19.5025C39.6288 19.5025 40.4975 20.3712 40.4975 21.4428Z"/>
	<path fill-rule="evenodd" clip-rule="evenodd" d="M30 0C13.4315 0 0 13.4315 0 30C0 46.5685 13.4315 60 30 60C46.5685 60 60 46.5685 60 30C60 13.4315 46.5685 0 30 0ZM23.1841 14.0299C18.1283 14.0299 14.0299 18.1283 14.0299 23.1841V36.8159C14.0299 41.8717 18.1283 45.9701 23.1841 45.9701H36.8159C41.8717 45.9701 45.9701 41.8717 45.9701 36.8159V23.1841C45.9701 18.1283 41.8717 14.0299 36.8159 14.0299H23.1841Z"/>
</svg>
