<svg id="fill-call-calling" viewBox="0 0 24 24" xmlns="http://www.w3.org/2000/svg">
	<path d="M5.71436 13.0699C6.98811 15.0846 8.64357 16.7758 10.6247 18.088L13.2006 16.1593C14.0128 15.5508 14.5361 15.1589 15.129 14.9245C15.6532 14.7173 16.2101 14.6051 16.7737 14.5931C17.4111 14.5795 18.0453 14.7382 19.0298 14.9845L19.9631 15.2178C20.6297 15.3838 21.1508 15.5136 21.5658 15.801C22.0246 16.1188 22.3759 16.5687 22.5729 17.0909C22.7511 17.5632 22.7507 18.0901 22.7501 18.7614L22.75 18.9117C22.75 19.3929 22.75 19.8003 22.7212 20.1384C22.6908 20.4961 22.6248 20.8306 22.4633 21.1561C22.162 21.7631 21.5528 22.3022 20.9136 22.5273C20.3021 22.7427 19.6992 22.6682 18.9486 22.5753L18.8273 22.5603C15.6136 22.1662 12.7265 21.1664 10.2624 19.6374C7.73479 18.069 5.66356 15.9507 4.14702 13.3814C2.73938 10.9966 1.81498 8.23256 1.43977 5.17262L1.42481 5.0513C1.33197 4.30081 1.25741 3.69802 1.4728 3.08653C1.69795 2.44733 2.23704 1.83809 2.84409 1.53682C3.16803 1.37606 3.49879 1.30968 3.85312 1.279C4.1867 1.25012 4.58702 1.25013 5.05802 1.25015L5.21294 1.25007C5.89983 1.24945 6.43687 1.24897 6.90925 1.42721C7.43143 1.62423 7.8813 1.97548 8.19909 2.43429C8.48657 2.84933 8.61635 3.37045 8.78235 4.03698L8.9628 4.75903C9.22656 5.81312 9.39642 6.49198 9.37039 7.17035C9.34738 7.76985 9.21101 8.35957 8.96848 8.90832C8.69406 9.52924 8.2434 10.0646 7.54366 10.8959L5.71436 13.0699Z"/>
	<path d="M13.25 7.00015C13.25 6.58593 13.5858 6.25015 14 6.25015C15.0265 6.25015 15.934 6.88905 16.5475 7.54453C16.8911 7.91156 17.1822 8.32438 17.3909 8.73063C17.5921 9.12214 17.75 9.5718 17.75 10.0001C17.75 10.4144 17.4142 10.7501 17 10.7501C16.5858 10.7501 16.25 10.4144 16.25 10.0001C16.25 9.91019 16.2063 9.70723 16.0568 9.41624C15.9148 9.13999 15.7059 8.84041 15.4524 8.56957C14.9562 8.03939 14.4186 7.75015 14 7.75015C13.5858 7.75015 13.25 7.41436 13.25 7.00015Z"/>
	<path d="M14 3.25015C13.5858 3.25015 13.25 3.58593 13.25 4.00015C13.25 4.41436 13.5858 4.75015 14 4.75015C16.8995 4.75015 19.25 7.10065 19.25 10.0001C19.25 10.4144 19.5858 10.7501 20 10.7501C20.4142 10.7501 20.75 10.4144 20.75 10.0001C20.75 6.27222 17.7279 3.25015 14 3.25015Z"/>
</svg>
