<svg id="fill-3dcube" viewBox="0 0 24 24" xmlns="http://www.w3.org/2000/svg">
	<path d="M19.3297 5.67979L13.0597 2.29979C12.3997 1.93979 11.5997 1.93979 10.9397 2.29979L4.66969 5.67979C4.20969 5.92979 3.92969 6.40979 3.92969 6.95979C3.92969 7.49979 4.20969 7.98979 4.66969 8.23979L10.9397 11.6198C11.2697 11.7998 11.6397 11.8898 11.9997 11.8898C12.3597 11.8898 12.7297 11.7998 13.0597 11.6198L19.3297 8.23979C19.7897 7.98979 20.0697 7.50979 20.0697 6.95979C20.0697 6.40979 19.7897 5.92979 19.3297 5.67979Z"/>
	<g opacity="0.4">
		<path d="M9.91 12.7901L4.07 9.87014C3.62 9.65014 3.1 9.67014 2.68 9.93014C2.25 10.2001 2 10.6501 2 11.1501V16.6601C2 17.6101 2.53 18.4701 3.38 18.9001L9.21 21.8201C9.41 21.9201 9.63 21.9701 9.85 21.9701C10.11 21.9701 10.37 21.9001 10.6 21.7601C11.03 21.5001 11.28 21.0401 11.28 20.5401V15.0301C11.29 14.0701 10.76 13.2101 9.91 12.7901Z"/>
		<path d="M21.32 9.93014C20.89 9.67014 20.37 9.64014 19.93 9.87014L14.1 12.7901C13.25 13.2201 12.72 14.0701 12.72 15.0301V20.5401C12.72 21.0401 12.97 21.5001 13.4 21.7601C13.63 21.9001 13.89 21.9701 14.15 21.9701C14.37 21.9701 14.59 21.9201 14.79 21.8201L20.62 18.9001C21.47 18.4701 22 17.6201 22 16.6601V11.1501C22 10.6501 21.75 10.2001 21.32 9.93014Z"/>
	</g>
</svg>
