<svg id="fill-soc-vk" viewBox="0 0 60 60" xmlns="http://www.w3.org/2000/svg">
	<path fill-rule="evenodd" clip-rule="evenodd" d="M30 0C13.4315 0 0 13.4315 0 30C0 46.5685 13.4315 60 30 60C46.5685 60 60 46.5685 60 30C60 13.4315 46.5685 0 30 0ZM47.7796 19.0289C49.0923 19.0289 49.3887 19.7064 49.0923 20.638C48.6297 22.7729 44.7884 28.4361 43.5986 30.1901C43.3725 30.5234 43.2422 30.7156 43.249 30.7156C42.7832 31.4778 42.6138 31.8165 43.249 32.6634C43.4786 32.9765 43.9654 33.4542 44.5219 34.0002C45.0942 34.5618 45.74 35.1956 46.2553 35.7967C48.1184 37.9139 49.5581 39.6923 49.9391 40.9202C50.2779 42.1482 49.6851 42.7833 48.4148 42.7833H44.0535C42.8977 42.7833 42.3019 42.1196 41.0322 40.705C40.4878 40.0984 39.8195 39.3538 38.93 38.4643C36.347 35.9661 35.2038 35.6274 34.5686 35.6274C33.6794 35.6274 33.4254 35.8391 33.4254 37.1094V41.0473C33.4254 42.1058 33.0866 42.741 30.292 42.741C25.6766 42.741 20.5531 39.9464 16.954 34.7382C11.5341 27.1164 10.0521 21.3578 10.0521 20.2145C10.0521 19.5794 10.2638 18.9866 11.5341 18.9866H15.9377C17.0386 18.9866 17.4621 19.4524 17.8855 20.6803C20.045 26.9047 23.6442 32.367 25.1262 32.367C25.6766 32.367 25.9307 32.1129 25.9307 30.7156V24.2795C25.8261 22.4501 25.1893 21.653 24.7171 21.0619C24.4242 20.6954 24.1946 20.408 24.1946 20.0028C24.1946 19.4947 24.618 18.9866 25.2955 18.9866H32.1551C33.0866 18.9866 33.4254 19.4947 33.4254 20.5956V29.2759C33.4254 30.2075 33.8065 30.5462 34.1029 30.5462C34.6533 30.5462 35.1191 30.2075 36.1353 29.1912C39.2687 25.6768 41.5129 20.2569 41.5129 20.2569C41.8093 19.6217 42.3174 19.0289 43.4183 19.0289H47.7796Z"/>
</svg>
