<svg id="fill-flash-circle" viewBox="0 0 24 24" xmlns="http://www.w3.org/2000/svg">
	<path opacity="0.4" d="M12 22C17.5228 22 22 17.5228 22 12C22 6.47715 17.5228 2 12 2C6.47715 2 2 6.47715 2 12C2 17.5228 6.47715 22 12 22Z"/>
	<path d="M8.68036 11.9098L10.3304 12.3198L9.38037 16.1598C9.16037 17.0598 9.60035 17.3599 10.3604 16.8299L15.5404 13.2398C16.1704 12.7998 16.0804 12.2898 15.3304 12.0998L13.6804 11.6898L14.6304 7.84981C14.8504 6.94981 14.4104 6.64983 13.6504 7.17983L8.47037 10.7699C7.84037 11.2099 7.93036 11.7198 8.68036 11.9098Z"/>
</svg>
