<svg id="fill-box-2" viewBox="0 0 24 24" xmlns="http://www.w3.org/2000/svg">
	<path d="M11.9998 22.7498C11.9398 22.7498 11.8798 22.7398 11.8298 22.7298C11.7698 22.7198 11.7098 22.6898 11.6498 22.6598L9.43979 21.5598C9.06979 21.3698 8.91978 20.9198 9.09978 20.5498C9.28978 20.1798 9.73979 20.0298 10.1098 20.2098L11.2498 20.7798V19.2198C11.2498 18.8098 11.5898 18.4698 11.9998 18.4698C12.4098 18.4698 12.7498 18.8098 12.7498 19.2198V20.7798L13.8898 20.2098C14.2598 20.0298 14.7098 20.1798 14.8998 20.5498C15.0898 20.9198 14.9398 21.3698 14.5598 21.5598L12.3498 22.6598C12.2898 22.6898 12.2298 22.7098 12.1698 22.7298C12.1098 22.7398 12.0598 22.7498 11.9998 22.7498Z"/>
	<path d="M11.9998 14.4198C11.5898 14.4198 11.2498 14.0798 11.2498 13.6698V11.3598L9.43979 10.4598C9.06979 10.2698 8.91978 9.8198 9.09978 9.4498C9.28978 9.0798 9.73979 8.9298 10.1098 9.1098L11.9998 10.0498L13.8898 9.1098C14.2598 8.9298 14.7098 9.0698 14.8998 9.4498C15.0898 9.8198 14.9398 10.2698 14.5598 10.4598L12.7498 11.3598V13.6698C12.7498 14.0798 12.4098 14.4198 11.9998 14.4198Z"/>
	<path d="M14.2198 3.8598C14.1098 3.8598 13.9898 3.8298 13.8898 3.7798L11.9998 2.83979L10.1098 3.7798C9.73979 3.9698 9.28979 3.8198 9.09979 3.4398C8.90979 3.0698 9.05979 2.61979 9.43979 2.42979L11.6598 1.3198C11.8698 1.2098 12.1198 1.2098 12.3298 1.3198L14.5498 2.42979C14.9198 2.61979 15.0698 3.0698 14.8898 3.4398C14.7598 3.7098 14.4998 3.8598 14.2198 3.8598Z"/>
	<g opacity="0.4">
		<path d="M5.33035 19.4198C5.22035 19.4198 5.10035 19.3898 5.00035 19.3398L2.78035 18.2298C2.53035 18.0998 2.37035 17.8398 2.37035 17.5598V14.7798C2.37035 14.3698 2.71035 14.0298 3.12035 14.0298C3.53035 14.0298 3.87035 14.3698 3.87035 14.7798V17.0898L5.68035 17.9898C6.05035 18.1798 6.20035 18.6298 6.02035 18.9998C5.87035 19.2598 5.61035 19.4198 5.33035 19.4198Z"/>
		<path d="M18.6703 19.4198C18.4003 19.4198 18.1303 19.2698 18.0003 19.0098C17.8103 18.6398 17.9603 18.1898 18.3403 17.9998L20.1504 17.0998V14.7898C20.1504 14.3798 20.4904 14.0398 20.9004 14.0398C21.3104 14.0398 21.6504 14.3798 21.6504 14.7898V17.5698C21.6504 17.8498 21.4903 18.1098 21.2403 18.2398L19.0203 19.3498C18.8903 19.3898 18.7803 19.4198 18.6703 19.4198Z"/>
		<path d="M3.11035 9.96977C2.70035 9.96977 2.36035 9.62977 2.36035 9.21977V6.44976C2.36035 6.38976 2.37035 6.32977 2.38035 6.27977C2.40035 6.19977 2.43035 6.12976 2.47035 6.05976C2.50035 6.00976 2.53035 5.96976 2.57035 5.92976C2.61035 5.88976 2.66035 5.84977 2.71035 5.81977C2.73035 5.80977 2.76035 5.78977 2.78035 5.77977L4.99035 4.67976C5.36035 4.49976 5.81035 4.63977 6.00035 5.01977C6.19035 5.38977 6.04035 5.83977 5.66035 6.02977L4.78035 6.46977L5.66035 6.90977C6.03035 7.09977 6.18035 7.54977 6.00035 7.91977C5.82035 8.28977 5.36035 8.43976 4.99035 8.25976L3.85035 7.68977V9.24977C3.86035 9.63977 3.53035 9.96977 3.11035 9.96977Z"/>
		<path d="M20.8904 9.96977C20.4804 9.96977 20.1404 9.62977 20.1404 9.21977V7.65977L19.0004 8.22977C18.6304 8.41977 18.1804 8.26977 17.9904 7.88977C17.8004 7.51977 17.9504 7.06977 18.3304 6.87977L19.2104 6.43977L18.3304 5.99977C17.9604 5.80977 17.8104 5.35978 17.9904 4.98978C18.1704 4.61978 18.6304 4.46976 19.0004 4.64976L21.2104 5.74977C21.2304 5.75977 21.2604 5.76976 21.2804 5.78976C21.3404 5.81976 21.3904 5.86977 21.4404 5.91977C21.4704 5.95977 21.5004 5.99976 21.5304 6.03976C21.5704 6.10976 21.6004 6.17976 21.6204 6.25976C21.6304 6.31976 21.6404 6.37976 21.6404 6.42976V9.19977C21.6404 9.63977 21.3004 9.96977 20.8904 9.96977Z"/>
	</g>
</svg>
