<svg id="fill-profile-2user-fill" viewBox="0 0 24 24" xmlns="http://www.w3.org/2000/svg">
	<path d="M4.24996 6.75C4.24996 4.13 6.37996 2 8.99996 2C11.62 2 13.75 4.13 13.75 6.75C13.74 9.32 11.73 11.4 9.16996 11.49H9.09996C9.03996 11.48 8.95996 11.48 8.87996 11.49C6.25996 11.4 4.24996 9.32 4.24996 6.75Z"/>
	<path d="M3.92996 14.15C6.73996 12.29 11.29 12.29 14.08 14.15C15.34 14.99 16.03 16.13 16.04 17.36C16.04 18.6 15.34 19.74 14.08 20.59C12.68 21.53 10.84 22 8.99996 22C7.15996 22 5.31996 21.53 3.91996 20.59C2.65996 19.75 1.95996 18.61 1.95996 17.38C1.95996 16.15 2.65996 15 3.92996 14.15Z"/>
	<path d="M19.99 7.34C20.15 9.28 18.77 10.98 16.86 11.21H16.81C16.75 11.21 16.69 11.21 16.64 11.23C15.67 11.28 14.78 10.97 14.11 10.4C15.14 9.48 15.73 8.1 15.61 6.6C15.54 5.79 15.26 5.05 14.84 4.42C15.22 4.23 15.66 4.11 16.11 4.07C18.07 3.9 19.82 5.36 19.99 7.34Z"/>
	<path d="M20.25 18.97C21.29 18.4 21.91 17.56 21.99 16.59C22.08 15.63 21.61 14.7 20.69 13.96C18.98 12.58 16.2 12.15 13.99 12.79C14.84 13.1 15.62 13.52 16.29 14.05C17.47 15 18.06 16.19 17.96 17.43C17.88 18.29 17.46 19.1 16.74 19.75C17.99 19.78 19.25 19.52 20.25 18.97Z"/>
</svg>
