<svg id="fill-emoji-happy" viewBox="0 0 24 24" xmlns="http://www.w3.org/2000/svg">
	<path opacity="0.4" d="M16.19 2H7.81C4.17 2 2 4.17 2 7.81V16.18C2 19.83 4.17 22 7.81 22H16.18C19.82 22 21.99 19.83 21.99 16.19V7.81C22 4.17 19.83 2 16.19 2Z"/>
	<path d="M15.5001 10.1301C16.5384 10.1301 17.3801 9.28841 17.3801 8.25012C17.3801 7.21182 16.5384 6.37012 15.5001 6.37012C14.4618 6.37012 13.6201 7.21182 13.6201 8.25012C13.6201 9.28841 14.4618 10.1301 15.5001 10.1301Z"/>
	<path d="M8.50012 10.1301C9.53841 10.1301 10.3801 9.28841 10.3801 8.25012C10.3801 7.21182 9.53841 6.37012 8.50012 6.37012C7.46182 6.37012 6.62012 7.21182 6.62012 8.25012C6.62012 9.28841 7.46182 10.1301 8.50012 10.1301Z"/>
	<path d="M15.6001 12.9201H8.40012C7.70012 12.9201 7.13012 13.4901 7.13012 14.2001C7.13012 16.8901 9.32012 19.0801 12.0101 19.0801C14.7001 19.0801 16.8901 16.8901 16.8901 14.2001C16.8801 13.5001 16.3001 12.9201 15.6001 12.9201Z"/>
</svg>
