<svg id="fill-people" viewBox="0 0 24 24" xmlns="http://www.w3.org/2000/svg">
	<g opacity="0.4">
		<path d="M17.5301 7.77C17.4601 7.76 17.3901 7.76 17.3201 7.77C15.7701 7.72 14.5401 6.45 14.5401 4.89C14.5401 3.3 15.8301 2 17.4301 2C19.0201 2 20.3201 3.29 20.3201 4.89C20.3101 6.45 19.0801 7.72 17.5301 7.77Z"/>
		<path d="M20.7901 14.7C19.6701 15.45 18.1001 15.73 16.6501 15.54C17.0301 14.72 17.2301 13.81 17.2401 12.85C17.2401 11.85 17.0201 10.9 16.6001 10.07C18.0801 9.87001 19.6501 10.15 20.7801 10.9C22.3601 11.94 22.3601 13.65 20.7901 14.7Z"/>
		<path d="M6.44012 7.77C6.51012 7.76 6.58012 7.76 6.65012 7.77C8.20012 7.72 9.43012 6.45 9.43012 4.89C9.43012 3.3 8.14012 2 6.54012 2C4.95012 2 3.65012 3.29 3.65012 4.89C3.66012 6.45 4.89012 7.72 6.44012 7.77Z"/>
		<path d="M6.55012 12.85C6.55012 13.82 6.76012 14.74 7.14012 15.57C5.73012 15.72 4.26012 15.42 3.18012 14.71C1.60012 13.66 1.60012 11.95 3.18012 10.9C4.25012 10.18 5.76012 9.89 7.18012 10.05C6.77012 10.89 6.55012 11.84 6.55012 12.85Z"/>
	</g>
	<path d="M12.1198 15.87C12.0398 15.86 11.9498 15.86 11.8598 15.87C10.0198 15.81 8.5498 14.3 8.5498 12.44C8.5498 10.54 10.0798 9 11.9898 9C13.8898 9 15.4298 10.54 15.4298 12.44C15.4298 14.3 13.9698 15.81 12.1198 15.87Z"/>
	<path d="M8.8698 17.94C7.3598 18.95 7.3598 20.61 8.8698 21.61C10.5898 22.76 13.4098 22.76 15.1298 21.61C16.6398 20.6 16.6398 18.94 15.1298 17.94C13.4198 16.79 10.5998 16.79 8.8698 17.94Z"/>
</svg>
