<svg id="fill-empty-wallet" viewBox="0 0 24 24" xmlns="http://www.w3.org/2000/svg">
	<path opacity="0.4" d="M18.04 13.55C17.62 13.96 17.38 14.55 17.44 15.18C17.53 16.26 18.52 17.05 19.6 17.05H21.5V18.24C21.5 20.31 19.81 22 17.74 22H6.26C4.19 22 2.5 20.31 2.5 18.24V11.51C2.5 9.44001 4.19 7.75 6.26 7.75H17.74C19.81 7.75 21.5 9.44001 21.5 11.51V12.95H19.48C18.92 12.95 18.41 13.17 18.04 13.55Z"/>
	<path d="M14.85 3.94964V7.74962H6.26C4.19 7.74962 2.5 9.43963 2.5 11.5096V7.83965C2.5 6.64965 3.23 5.58961 4.34 5.16961L12.28 2.16961C13.52 1.70961 14.85 2.61963 14.85 3.94964Z"/>
	<path d="M22.56 13.9696V16.0297C22.56 16.5797 22.12 17.0296 21.56 17.0496H19.6C18.52 17.0496 17.53 16.2596 17.44 15.1796C17.38 14.5496 17.62 13.9596 18.04 13.5496C18.41 13.1696 18.92 12.9496 19.48 12.9496H21.56C22.12 12.9696 22.56 13.4196 22.56 13.9696Z"/>
	<path d="M14 12.7496H7C6.59 12.7496 6.25 12.4096 6.25 11.9996C6.25 11.5896 6.59 11.2496 7 11.2496H14C14.41 11.2496 14.75 11.5896 14.75 11.9996C14.75 12.4096 14.41 12.7496 14 12.7496Z"/>
</svg>
