<svg id="fill-tree" viewBox="0 0 24 24" xmlns="http://www.w3.org/2000/svg">
	<path opacity="0.4" d="M16.1703 10.0598H7.83031C6.65031 10.0598 6.24032 9.26982 6.93032 8.30982L11.1003 2.46982C11.5903 1.76982 12.4103 1.76982 12.9003 2.46982L17.0703 8.30982C17.7603 9.26982 17.3503 10.0598 16.1703 10.0598Z"/>
	<path d="M17.5896 18.0001H6.4096C4.8296 18.0001 4.2896 16.9501 5.2196 15.6701L9.20959 10.0601H14.7896L18.7796 15.6701C19.7096 16.9501 19.1696 18.0001 17.5896 18.0001Z"/>
	<path d="M12.75 18V22C12.75 22.41 12.41 22.75 12 22.75C11.59 22.75 11.25 22.41 11.25 22V18H12.75Z"/>
</svg>
