<?xml version="1.0" standalone="no"?>
<!DOCTYPE svg PUBLIC "-//W3C//DTD SVG 20010904//EN"
 "http://www.w3.org/TR/2001/REC-SVG-20010904/DTD/svg10.dtd">
<svg version="1.0" xmlns="http://www.w3.org/2000/svg"
 width="116.000000pt" height="116.000000pt" viewBox="0 0 116.000000 116.000000"
 preserveAspectRatio="xMidYMid meet">
<metadata>
Created by potrace 1.14, written by Peter Selinger 2001-2017
</metadata>
<g transform="translate(0.000000,116.000000) scale(0.100000,-0.100000)"
fill="#000000" stroke="none">
<path d="M477 929 c-114 -26 -203 -114 -236 -233 -14 -53 -7 -57 17 -9 26 51
101 119 160 146 36 17 66 22 132 22 75 0 91 -3 136 -28 61 -34 123 -96 154
-152 l22 -40 -7 35 c-4 19 -16 57 -27 83 -12 26 -18 50 -15 53 11 11 134 27
159 21 40 -10 54 -42 32 -75 -21 -34 -39 -51 -93 -90 -59 -43 -39 -41 34 3
117 71 207 188 178 233 -19 31 -140 22 -260 -20 -100 -34 -103 -35 -119 -17
-48 53 -182 87 -267 68z"/>
<path d="M634 779 c-63 -34 -199 -124 -208 -137 -2 -4 41 15 97 43 56 28 126
61 156 73 45 19 52 24 41 37 -17 20 -18 20 -86 -16z"/>
<path d="M6 631 c-4 -5 -5 -30 -4 -55 l1 -46 49 0 c35 0 48 4 45 13 -2 7 -16
11 -35 9 -31 -3 -32 -2 -32 37 0 39 -13 61 -24 42z"/>
<path d="M650 585 l0 -55 50 0 c58 0 68 17 13 22 -39 3 -39 3 -42 66 -1 12 -5
22 -11 22 -5 0 -10 -25 -10 -55z"/>
<path d="M144 579 c-25 -40 -26 -65 -2 -41 7 7 21 12 33 12 12 0 26 -5 33 -12
6 -6 14 -9 18 -6 7 7 -38 88 -48 88 -4 0 -19 -18 -34 -41z m35 -10 c-16 -10
-23 -4 -14 10 3 6 11 8 17 5 6 -4 5 -9 -3 -15z"/>
<path d="M266 613 c-10 -10 -7 -43 4 -44 6 -1 19 -2 29 -3 11 0 23 -5 28 -9 4
-5 -9 -7 -29 -6 -21 2 -38 -1 -38 -6 0 -6 20 -11 45 -13 42 -3 45 -2 45 22 0
19 -6 26 -20 27 -33 2 -38 4 -47 13 -5 5 8 6 30 3 27 -4 37 -3 34 6 -4 13 -70
21 -81 10z"/>
<path d="M390 574 l0 -44 45 0 c54 0 60 17 8 23 -33 3 -35 5 -16 12 13 4 20
11 17 16 -3 5 -9 7 -14 4 -5 -3 -11 -1 -15 5 -4 6 8 10 29 10 20 0 36 4 36 9
0 4 -20 8 -45 8 l-45 0 0 -43z"/>
<path d="M510 575 c0 -25 5 -45 10 -45 6 0 10 7 10 15 0 19 11 19 36 0 25 -19
51 -20 35 -2 -6 8 -8 16 -6 19 3 3 7 15 10 26 4 23 -8 28 -62 31 -33 1 -33 1
-33 -44z m75 15 c4 -6 -7 -10 -25 -10 -18 0 -29 4 -25 10 3 6 15 10 25 10 10
0 22 -4 25 -10z"/>
<path d="M791 585 c-23 -40 -26 -55 -11 -55 6 0 10 5 10 10 0 6 14 10 30 10
17 0 30 -4 30 -10 0 -5 7 -10 16 -10 13 0 12 7 -9 42 -14 23 -29 44 -35 46 -5
1 -19 -13 -31 -33z m43 -4 c3 -5 -3 -11 -13 -14 -14 -3 -18 -1 -14 9 6 16 19
18 27 5z"/>
<path d="M900 574 c0 -32 4 -44 13 -41 6 2 11 14 9 25 -4 27 -3 27 38 -3 19
-14 37 -25 41 -25 9 0 6 76 -3 86 -8 8 -12 -9 -8 -40 1 -16 -4 -14 -38 12 -22
18 -43 32 -46 32 -3 0 -6 -21 -6 -46z"/>
<path d="M1047 612 c-2 -4 -3 -23 -3 -42 1 -32 5 -35 33 -38 43 -4 73 13 73
43 0 13 -5 27 -11 30 -16 10 -88 16 -92 7z m78 -37 c0 -11 -8 -21 -18 -23 -30
-6 -46 5 -40 28 8 29 58 25 58 -5z"/>
<path d="M837 467 c-33 -56 -100 -117 -160 -146 -55 -27 -147 -38 -198 -24
-26 8 -44 7 -73 -5 l-37 -15 28 -18 c54 -36 138 -51 210 -38 133 25 231 126
258 268 6 31 0 26 -28 -22z"/>
<path d="M625 453 c-49 -26 -126 -61 -170 -79 -77 -32 -80 -33 -106 -16 -31
19 -85 85 -94 113 -9 27 -20 24 -91 -26 -105 -75 -167 -169 -138 -209 35 -48
239 -3 439 97 81 40 239 140 250 157 8 13 11 15 -90 -37z m-375 0 c0 -10 14
-42 30 -72 17 -30 28 -56 25 -59 -2 -3 -35 -7 -72 -9 -116 -8 -134 33 -51 115
45 45 68 53 68 25z"/>
</g>
</svg>
